# xmcd
# Track frame offsets:
# 150
# 18706
# 34225
# 54993
# 71169
# 88269
# 106694
# 123044
# 138995
# 158241
# 175082
# 193648
# 199839
# 218277
#
# Disc length: 3121 seconds
# Revision: 0
# Processed by: cddbd v1.5.2PL0 Copyright (c) Steve Scherf et al.
# Submitted via: VisiTrax 2.9.10.228 - For more info visit www.synapsa.com
#
DISCID=bc0c2f0e
DTITLE=Marcus Malone - Blue Radio
DYEAR=2004
DGENRE=Chicago Blues, Blues Rock
TTITLE0=Runnin
TTITLE1=Hear My Train
TTITLE2=Blue Radio
TTITLE3=Bended Knee
TTITLE4=Double D
TTITLE5=Let Me Love You
TTITLE6=Supernatural Thing
TTITLE7=Candy
TTITLE8=Walk Away
TTITLE9=Keep On Pushin
TTITLE10=Mama Said
TTITLE11=Mama Said reprise
TTITLE12=Bended Knee (Guitar Mix)
TTITLE13=Candy (Guitar Mix
EXTD=
EXTT0=Written by Malone/Salkeld
EXTT1=Malone/Guidi
EXTT2=Malone
EXTT3=Malone
EXTT4=Malone
EXTT5=Malone/Barnes
EXTT6=Malone
EXTT7=Malone
EXTT8=Malone
EXTT9=Malone/Smith
EXTT10=Malone/Dixon
EXTT11=
EXTT12=
EXTT13=
PLAYORDER=
